<svg id="Componente_24_1" data-name="Componente 24 – 1" xmlns="http://www.w3.org/2000/svg" xmlns:xlink="http://www.w3.org/1999/xlink" width="76" height="76" viewBox="0 0 76 76">
  <defs>
    <clipPath id="clip-path">
      <rect id="Rettangolo_1574" data-name="Rettangolo 1574" width="76" height="76" fill="#0077ed"/>
    </clipPath>
  </defs>
  <path id="Tracciato_216" data-name="Tracciato 216" d="M50.071,23.071H47.357V20.357h2.714ZM51.429,19H46v5.429h5.429Z" transform="translate(16.429 6.786)" fill="#0077ed"/>
  <path id="Tracciato_217" data-name="Tracciato 217" d="M29.071,44.071H26.357V41.357h2.714ZM30.429,40H25v5.429h5.429Z" transform="translate(8.929 14.286)" fill="#0077ed"/>
  <path id="Tracciato_218" data-name="Tracciato 218" d="M22.071,44.071H19.357V41.357h2.714ZM23.429,40H18v5.429h5.429Z" transform="translate(6.429 14.286)" fill="#0077ed"/>
  <path id="Tracciato_219" data-name="Tracciato 219" d="M29.071,37.071H26.357V34.357h2.714ZM30.429,33H25v5.429h5.429Z" transform="translate(8.929 11.786)" fill="#0077ed"/>
  <path id="Tracciato_220" data-name="Tracciato 220" d="M22.071,37.071H19.357V34.357h2.714ZM23.429,33H18v5.429h5.429Z" transform="translate(6.429 11.786)" fill="#0077ed"/>
  <path id="Tracciato_221" data-name="Tracciato 221" d="M15.071,37.071H12.357V34.357h2.714ZM16.429,33H11v5.429h5.429Z" transform="translate(3.929 11.786)" fill="#0077ed"/>
  <path id="Tracciato_222" data-name="Tracciato 222" d="M8.071,37.071H5.357V34.357H8.071ZM9.429,33H4v5.429H9.429Z" transform="translate(1.429 11.786)" fill="#0077ed"/>
  <path id="Tracciato_223" data-name="Tracciato 223" d="M36.071,30.071H33.357V27.357h2.714ZM37.429,26H32v5.429h5.429Z" transform="translate(11.429 9.286)" fill="#0077ed"/>
  <path id="Tracciato_224" data-name="Tracciato 224" d="M29.071,30.071H26.357V27.357h2.714ZM30.429,26H25v5.429h5.429Z" transform="translate(8.929 9.286)" fill="#0077ed"/>
  <path id="Tracciato_225" data-name="Tracciato 225" d="M22.071,30.071H19.357V27.357h2.714ZM23.429,26H18v5.429h5.429Z" transform="translate(6.429 9.286)" fill="#0077ed"/>
  <path id="Tracciato_226" data-name="Tracciato 226" d="M15.071,30.071H12.357V27.357h2.714ZM16.429,26H11v5.429h5.429Z" transform="translate(3.929 9.286)" fill="#0077ed"/>
  <path id="Tracciato_227" data-name="Tracciato 227" d="M8.071,30.071H5.357V27.357H8.071ZM9.429,26H4v5.429H9.429Z" transform="translate(1.429 9.286)" fill="#0077ed"/>
  <path id="Tracciato_228" data-name="Tracciato 228" d="M43.071,23.071H40.357V20.357h2.714ZM44.429,19H39v5.429h5.429Z" transform="translate(13.929 6.786)" fill="#0077ed"/>
  <path id="Tracciato_229" data-name="Tracciato 229" d="M36.071,23.071H33.357V20.357h2.714ZM37.429,19H32v5.429h5.429Z" transform="translate(11.429 6.786)" fill="#0077ed"/>
  <path id="Tracciato_230" data-name="Tracciato 230" d="M29.071,23.071H26.357V20.357h2.714ZM30.429,19H25v5.429h5.429Z" transform="translate(8.929 6.786)" fill="#0077ed"/>
  <path id="Tracciato_231" data-name="Tracciato 231" d="M22.071,23.071H19.357V20.357h2.714ZM23.429,19H18v5.429h5.429Z" transform="translate(6.429 6.786)" fill="#0077ed"/>
  <path id="Tracciato_232" data-name="Tracciato 232" d="M15.071,23.071H12.357V20.357h2.714ZM16.429,19H11v5.429h5.429Z" transform="translate(3.929 6.786)" fill="#0077ed"/>
  <g id="Raggruppa_58" data-name="Raggruppa 58">
    <g id="Raggruppa_57" data-name="Raggruppa 57" clip-path="url(#clip-path)">
      <path id="Tracciato_233" data-name="Tracciato 233" d="M43.429,14.929V12.214a1.361,1.361,0,0,1,1.357,1.357v2.714a1.361,1.361,0,0,1-1.357,1.357H40.714a1.361,1.361,0,0,1-1.357-1.357V13.571a1.361,1.361,0,0,1,1.357-1.357V10.857A2.716,2.716,0,0,0,38,13.571v2.714A2.716,2.716,0,0,0,40.714,19h2.714a2.717,2.717,0,0,0,2.714-2.714V13.571a2.717,2.717,0,0,0-2.714-2.714V8.143h6.786V6.786H43.429V1.357A1.356,1.356,0,0,0,42.071,0V16.286a1.356,1.356,0,0,0,1.357-1.357" transform="translate(13.571)" fill="#0077ed"/>
      <path id="Tracciato_234" data-name="Tracciato 234" d="M36.429,14.929V12.214a1.361,1.361,0,0,1,1.357,1.357v2.714a1.361,1.361,0,0,1-1.357,1.357H33.714a1.361,1.361,0,0,1-1.357-1.357V13.571a1.361,1.361,0,0,1,1.357-1.357V10.857A2.716,2.716,0,0,0,31,13.571v2.714A2.716,2.716,0,0,0,33.714,19h2.714a2.717,2.717,0,0,0,2.714-2.714V13.571a2.717,2.717,0,0,0-2.714-2.714V8.143h6.786V6.786H36.429V1.357A1.356,1.356,0,0,0,35.071,0V16.286a1.356,1.356,0,0,0,1.357-1.357" transform="translate(11.071)" fill="#0077ed"/>
      <path id="Tracciato_235" data-name="Tracciato 235" d="M29.429,14.929V12.214a1.361,1.361,0,0,1,1.357,1.357v2.714a1.361,1.361,0,0,1-1.357,1.357H26.714a1.361,1.361,0,0,1-1.357-1.357V13.571a1.361,1.361,0,0,1,1.357-1.357V10.857A2.715,2.715,0,0,0,24,13.571v2.714A2.715,2.715,0,0,0,26.714,19h2.714a2.717,2.717,0,0,0,2.714-2.714V13.571a2.717,2.717,0,0,0-2.714-2.714V8.143h6.786V6.786H29.429V1.357A1.356,1.356,0,0,0,28.071,0V16.286a1.356,1.356,0,0,0,1.357-1.357" transform="translate(8.571)" fill="#0077ed"/>
      <path id="Tracciato_236" data-name="Tracciato 236" d="M22.429,14.929V12.214a1.361,1.361,0,0,1,1.357,1.357v2.714a1.361,1.361,0,0,1-1.357,1.357H19.714a1.361,1.361,0,0,1-1.357-1.357V13.571a1.361,1.361,0,0,1,1.357-1.357V10.857A2.715,2.715,0,0,0,17,13.571v2.714A2.715,2.715,0,0,0,19.714,19h2.714a2.715,2.715,0,0,0,2.714-2.714V13.571a2.715,2.715,0,0,0-2.714-2.714V8.143h6.786V6.786H22.429V1.357A1.356,1.356,0,0,0,21.071,0V16.286a1.356,1.356,0,0,0,1.357-1.357" transform="translate(6.071)" fill="#0077ed"/>
      <path id="Tracciato_237" data-name="Tracciato 237" d="M15.429,14.929V12.214a1.361,1.361,0,0,1,1.357,1.357v2.714a1.361,1.361,0,0,1-1.357,1.357H12.714a1.361,1.361,0,0,1-1.357-1.357V13.571a1.361,1.361,0,0,1,1.357-1.357V10.857A2.715,2.715,0,0,0,10,13.571v2.714A2.715,2.715,0,0,0,12.714,19h2.714a2.715,2.715,0,0,0,2.714-2.714V13.571a2.715,2.715,0,0,0-2.714-2.714V8.143h6.786V6.786H15.429V1.357A1.356,1.356,0,0,0,14.071,0V16.286a1.356,1.356,0,0,0,1.357-1.357" transform="translate(3.571)" fill="#0077ed"/>
      <path id="Tracciato_238" data-name="Tracciato 238" d="M8.429,14.929V12.214a1.361,1.361,0,0,1,1.357,1.357v2.714a1.361,1.361,0,0,1-1.357,1.357H5.714a1.361,1.361,0,0,1-1.357-1.357V13.571a1.361,1.361,0,0,1,1.357-1.357V10.857A2.715,2.715,0,0,0,3,13.571v2.714A2.715,2.715,0,0,0,5.714,19H8.429a2.715,2.715,0,0,0,2.714-2.714V13.571a2.715,2.715,0,0,0-2.714-2.714V8.143h6.786V6.786H8.429V1.357A1.356,1.356,0,0,0,7.071,0V16.286a1.356,1.356,0,0,0,1.357-1.357" transform="translate(1.071)" fill="#0077ed"/>
      <path id="Tracciato_239" data-name="Tracciato 239" d="M41.94,50H0v1.357H42.788c-.3-.432-.582-1.357-.848-1.357" transform="translate(0 17.857)" fill="#0077ed"/>
      <path id="Tracciato_240" data-name="Tracciato 240" d="M40.631,65.143h-25.7V51.571H1.357V21.714H71.929V45.087a19.247,19.247,0,0,1,1.357,1.557V6.786H66.5V1.357A1.356,1.356,0,0,0,65.143,0V16.286A1.356,1.356,0,0,0,66.5,14.929V12.214a1.361,1.361,0,0,1,1.357,1.357v2.714A1.361,1.361,0,0,1,66.5,17.643H63.786a1.361,1.361,0,0,1-1.357-1.357V13.571a1.361,1.361,0,0,1,1.357-1.357V10.857a2.717,2.717,0,0,0-2.714,2.714v2.714A2.716,2.716,0,0,0,63.786,19H66.5a2.717,2.717,0,0,0,2.714-2.714V13.571A2.718,2.718,0,0,0,66.5,10.857V8.143h5.429V20.357H1.357V8.143H6.786V6.786H0V66.5H41.216q-.318-.666-.585-1.357m-39.274,0V52.929L13.571,65.143Zm12.214-1.919-10.3-10.3h10.3Z" fill="#0077ed"/>
      <path id="Tracciato_241" data-name="Tracciato 241" d="M48.94,31.429h2.489V26H46v4.522a18.825,18.825,0,0,1,2.94.907m-1.582-4.071h2.714v2.714H47.357Z" transform="translate(16.429 9.286)" fill="#0077ed"/>
      <path id="Tracciato_242" data-name="Tracciato 242" d="M33.657,33H32v1.857A19.38,19.38,0,0,1,33.657,33" transform="translate(11.429 11.786)" fill="#0077ed"/>
      <path id="Tracciato_243" data-name="Tracciato 243" d="M44.429,30.071V26H39v4.872a18.928,18.928,0,0,1,5.429-.8m-4.071-2.714h2.714v2.714H40.357Z" transform="translate(13.929 9.286)" fill="#0077ed"/>
      <path id="Tracciato_244" data-name="Tracciato 244" d="M47.643,31.357A16.286,16.286,0,1,1,31.357,47.643,16.3,16.3,0,0,1,47.643,31.357m0-1.357A17.643,17.643,0,1,0,65.286,47.643,17.639,17.639,0,0,0,47.643,30" transform="translate(10.714 10.714)" fill="#0077ed"/>
      <path id="Tracciato_245" data-name="Tracciato 245" d="M43.256,53.96,35.4,46.1a1.357,1.357,0,0,1,1.919-1.919L43.03,49.9l9.91-12.388a1.358,1.358,0,1,1,2.12,1.7Z" transform="translate(12.5 13.214)" fill="#0077ed"/>
      <path id="Tracciato_246" data-name="Tracciato 246" d="M12,40v1.357h2.714v2.714H12v1.357h4.071V40Z" transform="translate(4.286 14.286)" fill="#0077ed"/>
    </g>
  </g>
</svg>
