<svg id="Componente_26_1" data-name="Componente 26 – 1" xmlns="http://www.w3.org/2000/svg" width="60.518" height="76" viewBox="0 0 60.518 76">
  <path id="Tracciato_280" data-name="Tracciato 280" d="M46.444,3.4,57.121,14.074H46.444ZM1.407,1.407h43.63V15.481H59.111V74.593H1.407ZM0,0V76H60.519V15.481L45.037,0Z" fill="#0077ed"/>
  <rect id="Rettangolo_1587" data-name="Rettangolo 1587" width="17.624" height="1" transform="translate(22.641 14)" fill="#0077ed"/>
  <rect id="Rettangolo_1588" data-name="Rettangolo 1588" width="44" height="1" transform="translate(8 20)" fill="#0077ed"/>
  <rect id="Rettangolo_1589" data-name="Rettangolo 1589" width="24" height="1" transform="translate(8 65)" fill="#0077ed"/>
  <rect id="Rettangolo_1590" data-name="Rettangolo 1590" width="44" height="1" transform="translate(8.259 59)" fill="#0077ed"/>
  <rect id="Rettangolo_1591" data-name="Rettangolo 1591" width="44" height="1" transform="translate(8 53)" fill="#0077ed"/>
  <rect id="Rettangolo_1592" data-name="Rettangolo 1592" width="44" height="1" transform="translate(8 48)" fill="#0077ed"/>
  <rect id="Rettangolo_1593" data-name="Rettangolo 1593" width="44" height="1" transform="translate(8 42)" fill="#0077ed"/>
  <rect id="Rettangolo_1594" data-name="Rettangolo 1594" width="44" height="1" transform="translate(8 37)" fill="#0077ed"/>
  <rect id="Rettangolo_1595" data-name="Rettangolo 1595" width="44" height="1" transform="translate(8 31)" fill="#0077ed"/>
  <rect id="Rettangolo_1596" data-name="Rettangolo 1596" width="44" height="1" transform="translate(8 25)" fill="#0077ed"/>
  <rect id="Rettangolo_1597" data-name="Rettangolo 1597" width="17.623" height="1" transform="translate(22.641 8)" fill="#0077ed"/>
</svg>
