<svg id="Componente_29_1" data-name="Componente 29 – 1" xmlns="http://www.w3.org/2000/svg" xmlns:xlink="http://www.w3.org/1999/xlink" width="76" height="76" viewBox="0 0 76 76">
  <defs>
    <clipPath id="clip-path">
      <rect id="Rettangolo_1668" data-name="Rettangolo 1668" width="76" height="76" fill="#0077ed"/>
    </clipPath>
  </defs>
  <g id="Raggruppa_76" data-name="Raggruppa 76" clip-path="url(#clip-path)">
    <path id="Tracciato_298" data-name="Tracciato 298" d="M6.333,0A6.34,6.34,0,0,0,0,6.333V8.443H11.786V7.036H1.407v-.7A4.931,4.931,0,0,1,6.333,1.407h50.66V0Z" transform="translate(-0.49 -0.49)" fill="#0077ed"/>
    <path id="Tracciato_299" data-name="Tracciato 299" d="M53.107,74.583H15.758a4.932,4.932,0,0,1-4.925-4.928V6.333A6.318,6.318,0,0,0,8.475,1.407H56.567a4.931,4.931,0,0,1,4.925,4.925V68.954H62.9V6.333A6.34,6.34,0,0,0,56.567,0H4.5V1.407A4.931,4.931,0,0,1,9.425,6.333V69.655a6.342,6.342,0,0,0,6.333,6.335H53.107Z" transform="translate(1.342 -0.49)" fill="#0077ed"/>
    <path id="Tracciato_300" data-name="Tracciato 300" d="M64.567,56.441H12.5V55.033a4.931,4.931,0,0,0,4.925-4.925V48H70.9v2.108a6.339,6.339,0,0,1-6.333,6.333m-48.091-1.4H64.567a4.933,4.933,0,0,0,4.925-4.928v-.7H18.833v.7a6.331,6.331,0,0,1-2.356,4.928" transform="translate(4.6 19.057)" fill="#0077ed"/>
    <path id="Tracciato_301" data-name="Tracciato 301" d="M39.851,35.932V47.286l-3.377-2.532-.844-.635-.844.635-3.377,2.532V35.932A7.407,7.407,0,0,0,30,36.111V50.1l5.629-4.222L41.258,50.1V36.111a7.508,7.508,0,0,0-1.407-.179" transform="translate(11.727 14.142)" fill="#0077ed"/>
    <path id="Tracciato_302" data-name="Tracciato 302" d="M37.665,46.33c-1.176,0-1.929-1.145-2.594-2.157a4.265,4.265,0,0,0-1.176-1.4,4.7,4.7,0,0,0-1.912.149,9.123,9.123,0,0,1-1.746.243,2.045,2.045,0,0,1-1.527-.542c-.8-.8-.545-2.056-.3-3.27a4.355,4.355,0,0,0,.151-1.912,4.276,4.276,0,0,0-1.406-1.179C26.145,35.593,25,34.841,25,33.665s1.145-1.928,2.156-2.592a4.276,4.276,0,0,0,1.406-1.179,4.355,4.355,0,0,0-.151-1.912c-.246-1.214-.5-2.472.3-3.272a2.043,2.043,0,0,1,1.524-.54,9.215,9.215,0,0,1,1.746.242,4.66,4.66,0,0,0,1.914.151,4.265,4.265,0,0,0,1.176-1.4C35.736,22.147,36.489,21,37.665,21s1.929,1.147,2.594,2.157a4.266,4.266,0,0,0,1.178,1.4,4.654,4.654,0,0,0,1.912-.151,9.23,9.23,0,0,1,1.748-.242,2.045,2.045,0,0,1,1.524.54c.8.8.545,2.057.3,3.272a4.4,4.4,0,0,0-.151,1.912,4.307,4.307,0,0,0,1.406,1.179c1.01.664,2.156,1.416,2.156,2.592s-1.145,1.928-2.156,2.592a4.306,4.306,0,0,0-1.406,1.179,4.4,4.4,0,0,0,.151,1.912c.246,1.214.5,2.472-.3,3.272a2.04,2.04,0,0,1-1.524.54,9.214,9.214,0,0,1-1.748-.242,4.678,4.678,0,0,0-1.912-.151,4.265,4.265,0,0,0-1.178,1.4c-.664,1.012-1.417,2.157-2.594,2.157M33.457,41.3a2.5,2.5,0,0,1,.975.172A4.778,4.778,0,0,1,36.248,43.4c.446.68,1,1.523,1.417,1.523s.972-.843,1.417-1.523A4.794,4.794,0,0,1,40.9,41.468a5.24,5.24,0,0,1,2.733.072,8.242,8.242,0,0,0,1.468.214.824.824,0,0,0,.528-.128c.267-.265.063-1.267-.084-2a4.916,4.916,0,0,1-.072-2.73A4.794,4.794,0,0,1,47.4,35.081c.678-.445,1.521-1,1.521-1.416s-.843-.97-1.521-1.416a4.794,4.794,0,0,1-1.934-1.817,4.916,4.916,0,0,1,.072-2.73c.148-.732.352-1.734.084-2a.832.832,0,0,0-.528-.128,8.211,8.211,0,0,0-1.466.214,5.285,5.285,0,0,1-2.733.072,4.769,4.769,0,0,1-1.815-1.932c-.445-.678-1-1.523-1.417-1.523s-.971.844-1.417,1.523a4.766,4.766,0,0,1-1.814,1.932A5.255,5.255,0,0,1,31.7,25.79a8.211,8.211,0,0,0-1.466-.214.834.834,0,0,0-.529.128c-.266.265-.063,1.267.086,2a4.915,4.915,0,0,1,.07,2.73,4.776,4.776,0,0,1-1.934,1.817c-.677.446-1.521,1-1.521,1.416s.844.971,1.521,1.416A4.776,4.776,0,0,1,29.862,36.9a4.915,4.915,0,0,1-.07,2.73c-.149.732-.352,1.732-.086,2a.83.83,0,0,0,.531.129A8.355,8.355,0,0,0,31.7,41.54a9.178,9.178,0,0,1,1.753-.243" transform="translate(9.69 8.062)" fill="#0077ed"/>
    <path id="Tracciato_303" data-name="Tracciato 303" d="M35.833,38.165a6.333,6.333,0,1,1,6.333-6.333,6.34,6.34,0,0,1-6.333,6.333m0-11.258a4.925,4.925,0,1,0,4.925,4.925,4.931,4.931,0,0,0-4.925-4.925" transform="translate(11.523 9.894)" fill="#0077ed"/>
    <rect id="Rettangolo_1662" data-name="Rettangolo 1662" width="13" height="1" transform="translate(18 41)" fill="#0077ed"/>
    <rect id="Rettangolo_1663" data-name="Rettangolo 1663" width="13" height="1" transform="translate(18 35)" fill="#0077ed"/>
    <rect id="Rettangolo_1664" data-name="Rettangolo 1664" width="19" height="1" transform="translate(18 29)" fill="#0077ed"/>
    <rect id="Rettangolo_1665" data-name="Rettangolo 1665" width="41" height="1" transform="translate(18 24)" fill="#0077ed"/>
    <rect id="Rettangolo_1666" data-name="Rettangolo 1666" width="41" height="1" transform="translate(18 18)" fill="#0077ed"/>
    <rect id="Rettangolo_1667" data-name="Rettangolo 1667" width="29" height="1" transform="translate(24 12)" fill="#0077ed"/>
  </g>
</svg>
