<svg id="Componente_30_1" data-name="Componente 30 – 1" xmlns="http://www.w3.org/2000/svg" xmlns:xlink="http://www.w3.org/1999/xlink" width="79.67" height="64" viewBox="0 0 79.67 64">
  <defs>
    <clipPath id="clip-path">
      <rect id="Rettangolo_1582" data-name="Rettangolo 1582" width="79.67" height="64" fill="#0077ed"/>
    </clipPath>
  </defs>
  <g id="Raggruppa_62" data-name="Raggruppa 62" clip-path="url(#clip-path)">
    <path id="Tracciato_253" data-name="Tracciato 253" d="M46.935,24.871a1.435,1.435,0,1,1,1.435-1.435,1.438,1.438,0,0,1-1.435,1.435" transform="translate(19.815 9.581)" fill="#0077ed"/>
    <path id="Tracciato_254" data-name="Tracciato 254" d="M47.481,22.494a2.88,2.88,0,0,1,1.1,1.121,33.915,33.915,0,0,0,1.723-4.4,7.072,7.072,0,0,0-1.288-.762,31.569,31.569,0,0,1-1.536,4.041" transform="translate(20.678 8.036)" fill="#0077ed"/>
    <path id="Tracciato_255" data-name="Tracciato 255" d="M47.657,25.105a2.847,2.847,0,0,1-1.341-.347c-.767,1.2-1.6,2.379-2.473,3.533a7.23,7.23,0,0,0,1.382.669c.943-1.263,1.836-2.557,2.651-3.877-.073.006-.144.023-.22.023" transform="translate(19.093 10.782)" fill="#0077ed"/>
    <path id="Tracciato_256" data-name="Tracciato 256" d="M45.806,23H41.5a7.057,7.057,0,0,0,.146,1.435h4.559a2.825,2.825,0,0,1-.4-1.435" transform="translate(18.073 10.016)" fill="#0077ed"/>
    <path id="Tracciato_257" data-name="Tracciato 257" d="M48.677,32.355a7.177,7.177,0,1,1,7.177-7.177,7.186,7.186,0,0,1-7.177,7.177m0-12.919a5.742,5.742,0,1,0,5.742,5.742,5.75,5.75,0,0,0-5.742-5.742" transform="translate(18.073 7.839)" fill="#0077ed"/>
    <path id="Tracciato_258" data-name="Tracciato 258" d="M48.817,18.787a8.666,8.666,0,0,1,1.321.7,25.053,25.053,0,0,0,.722-4.5,13.116,13.116,0,0,0-1.415-.558,23.13,23.13,0,0,1-.627,4.352" transform="translate(21.259 6.286)" fill="#0077ed"/>
    <path id="Tracciato_259" data-name="Tracciato 259" d="M52.07,0a19.777,19.777,0,0,0-15.78,7.851A19.784,19.784,0,0,0,.725,19.785,27.862,27.862,0,0,0,3.6,31.581H5.232a26.638,26.638,0,0,1-3.072-11.8A18.35,18.35,0,0,1,35.7,9.484l.593.874.594-.874a18.337,18.337,0,0,1,33.507,9.744,14.023,14.023,0,0,1,1.461.5A19.809,19.809,0,0,0,52.07,0" transform="translate(0.316)" fill="#0077ed"/>
    <path id="Tracciato_260" data-name="Tracciato 260" d="M36.605,58.616C33.789,56.85,15.775,45.174,7.114,30.75H25.121a.717.717,0,0,0,.666-.452l.769-1.922,2.2,5.511a.733.733,0,0,0,.739.449.718.718,0,0,0,.633-.59l3.451-19.554,3.742,32.431a.719.719,0,0,0,.688.636h.026a.717.717,0,0,0,.7-.586L42.407,27.15l.675,3.038a.716.716,0,0,0,.7.563h8.686a14.367,14.367,0,0,1-.073-1.435H44.358l-1.311-5.9a.738.738,0,0,0-.712-.563.716.716,0,0,0-.693.586l-3.432,18.3L34.448,9.136a.72.72,0,0,0-.692-.636.686.686,0,0,0-.728.593L29.159,31.016l-1.936-4.839a.748.748,0,0,0-1.332,0l-1.255,3.138H.718a.718.718,0,1,0,0,1.435h4.7c9.173,16.095,29.7,28.651,30.819,29.324l.37.224.37-.224A116.7,116.7,0,0,0,59.559,41.719a14.577,14.577,0,0,1-1.285-.846A119.04,119.04,0,0,1,36.605,58.616" transform="translate(0 3.702)" fill="#0077ed"/>
    <path id="Tracciato_261" data-name="Tracciato 261" d="M44.073,28.019c-.9,1.125-1.842,2.216-2.8,3.287a13.087,13.087,0,0,0,1.3.833c.983-1.1,1.939-2.232,2.851-3.392a8.7,8.7,0,0,1-1.348-.728" transform="translate(17.972 12.202)" fill="#0077ed"/>
    <path id="Tracciato_262" data-name="Tracciato 262" d="M41.806,23H37.5a13.176,13.176,0,0,0,.085,1.435h4.351A8.6,8.6,0,0,1,41.806,23" transform="translate(16.331 10.016)" fill="#0077ed"/>
    <path id="Tracciato_263" data-name="Tracciato 263" d="M50.419,39.839A12.919,12.919,0,1,1,63.339,26.919,12.933,12.933,0,0,1,50.419,39.839m0-24.4A11.484,11.484,0,1,0,61.9,26.919,11.5,11.5,0,0,0,50.419,15.435" transform="translate(16.331 6.097)" fill="#0077ed"/>
  </g>
</svg>
