<svg id="Componente_31_1" data-name="Componente 31 – 1" xmlns="http://www.w3.org/2000/svg" xmlns:xlink="http://www.w3.org/1999/xlink" width="64" height="64" viewBox="0 0 64 64">
  <defs>
    <clipPath id="clip-path">
      <rect id="Rettangolo_1669" data-name="Rettangolo 1669" width="64" height="64" fill="#0077ed"/>
    </clipPath>
  </defs>
  <g id="Raggruppa_77" data-name="Raggruppa 77" clip-path="url(#clip-path)">
    <path id="Tracciato_304" data-name="Tracciato 304" d="M34.1,1.176a.447.447,0,0,1,.32.249L36.2,8.551c.042.171.079.381.115.6l.121.767.754.188A22.174,22.174,0,0,1,43.206,12.6l.666.4.628-.455c.18-.129.354-.253.5-.343l6.3-3.779a.309.309,0,0,1,.142-.027.427.427,0,0,1,.26.078l3.326,3.326a.444.444,0,0,1,.051.4L51.3,18.5c-.089.149-.212.323-.341.5l-.456.628.4.668A22.183,22.183,0,0,1,53.4,26.307l.188.751.763.123c.22.035.429.072.6.114l7.128,1.784a.444.444,0,0,1,.248.319v4.7a.441.441,0,0,1-.25.319L54.947,36.2c-.168.041-.377.079-.594.113l-.769.121-.189.755A22.22,22.22,0,0,1,50.9,43.207l-.4.667.456.628c.129.179.252.352.341.5l3.781,6.3a.449.449,0,0,1-.051.4l-3.326,3.326a.427.427,0,0,1-.26.078.311.311,0,0,1-.143-.027L45,51.3c-.148-.088-.322-.21-.5-.34l-.629-.456-.667.4A22.174,22.174,0,0,1,37.193,53.4l-.754.188-.121.767c-.036.218-.073.428-.115.6l-1.782,7.127a.447.447,0,0,1-.32.249H29.4a.451.451,0,0,1-.321-.249L27.3,54.947c-.042-.169-.08-.38-.115-.6l-.121-.767-.754-.188A22.207,22.207,0,0,1,20.292,50.9l-.667-.4L19,50.961c-.18.129-.355.252-.5.341l-6.3,3.781a.312.312,0,0,1-.142.027.424.424,0,0,1-.26-.078L8.468,51.707a.444.444,0,0,1-.051-.4l3.781-6.3c.089-.151.212-.326.341-.5L13,43.874l-.4-.668A22.166,22.166,0,0,1,10.1,37.192l-.189-.755-.769-.121c-.216-.034-.426-.072-.594-.113L1.424,34.421a.444.444,0,0,1-.248-.319V29.4a.441.441,0,0,1,.25-.319L8.553,27.3c.168-.041.377-.08.594-.113l.769-.121.189-.755A22.166,22.166,0,0,1,12.6,20.294l.4-.668L12.539,19c-.129-.179-.252-.355-.341-.5L8.417,12.2a.444.444,0,0,1,.051-.4l3.326-3.326a.427.427,0,0,1,.26-.078.311.311,0,0,1,.143.027L18.5,12.2c.149.088.323.21.5.34l.629.456.667-.4A22.174,22.174,0,0,1,26.307,10.1l.754-.188.121-.767c.035-.218.073-.428.115-.6l1.78-7.126a.451.451,0,0,1,.321-.249ZM34.1,0H29.4a1.586,1.586,0,0,0-1.461,1.141L26.155,8.267c-.048.2-.093.442-.133.7a23.249,23.249,0,0,0-6.334,2.623c-.209-.152-.413-.294-.588-.4L12.8,7.41a1.451,1.451,0,0,0-.749-.2,1.563,1.563,0,0,0-1.091.422L7.636,10.962A1.589,1.589,0,0,0,7.41,12.8l3.781,6.3c.1.175.246.379.4.588a23.286,23.286,0,0,0-2.623,6.334c-.255.04-.5.085-.7.134L1.141,27.938A1.586,1.586,0,0,0,0,29.4v4.7a1.589,1.589,0,0,0,1.141,1.461l7.126,1.782c.2.049.442.094.7.134a23.286,23.286,0,0,0,2.623,6.334c-.152.209-.293.413-.4.588L7.41,50.7a1.589,1.589,0,0,0,.227,1.84l3.326,3.326a1.563,1.563,0,0,0,1.091.422,1.463,1.463,0,0,0,.749-.2l6.3-3.781c.176-.1.379-.246.588-.4a23.346,23.346,0,0,0,6.335,2.623c.04.255.085.5.133.7l1.783,7.126A1.586,1.586,0,0,0,29.4,63.5h4.7a1.586,1.586,0,0,0,1.461-1.141l1.783-7.126c.048-.2.093-.442.133-.7a23.286,23.286,0,0,0,6.334-2.623c.209.152.413.293.588.4l6.3,3.781a1.463,1.463,0,0,0,.749.2,1.563,1.563,0,0,0,1.091-.422l3.326-3.326a1.589,1.589,0,0,0,.227-1.84L52.31,44.4c-.1-.176-.246-.379-.4-.588a23.338,23.338,0,0,0,2.623-6.334c.255-.04.5-.085.7-.134l7.126-1.782A1.586,1.586,0,0,0,63.5,34.1V29.4a1.586,1.586,0,0,0-1.141-1.461l-7.126-1.783c-.2-.049-.442-.093-.7-.134a23.331,23.331,0,0,0-2.623-6.332c.152-.209.293-.413.4-.588l3.781-6.3a1.589,1.589,0,0,0-.227-1.84L52.538,7.636a1.563,1.563,0,0,0-1.091-.422,1.451,1.451,0,0,0-.749.2l-6.3,3.779c-.175.1-.377.247-.588.4a23.242,23.242,0,0,0-6.332-2.623c-.04-.255-.085-.5-.133-.7L35.562,1.141A1.586,1.586,0,0,0,34.1,0" fill="#0077ed"/>
    <path id="Tracciato_305" data-name="Tracciato 305" d="M29.287,43.758a17.636,17.636,0,0,0,15.285-8.874L33.99,32l-1.176,1.625-3.528,1.763-3.528-1.763L24.583,32,14,34.886a17.637,17.637,0,0,0,15.284,8.872l-3.534-8.835.04.033L29.287,36.7l3.495-1.746.039-.033Zm-1.776-1.274A16.547,16.547,0,0,1,15.854,35.6l8.027-2.19Zm3.552,0,3.63-9.075L42.72,35.6a16.547,16.547,0,0,1-11.657,6.885" transform="translate(2.463 5.63)" fill="#0077ed"/>
    <path id="Tracciato_306" data-name="Tracciato 306" d="M31.2,30.426h.029v3.5L27.7,35.834l-3.528-1.911v-3.5h.031a9.525,9.525,0,0,1-.965-1.176H23v5.488l4.7,2.586,4.7-2.586V29.25h-.24a9.633,9.633,0,0,1-.965,1.176" transform="translate(4.046 5.146)" fill="#0077ed"/>
    <path id="Tracciato_307" data-name="Tracciato 307" d="M34.841,22.189h-.911a.766.766,0,0,0-.6-.486l-1.152-.165a6.245,6.245,0,0,0-.821-.048,5.822,5.822,0,0,0-.681.035l-1.528.191a.653.653,0,0,0-.554.473H27.444a.651.651,0,0,0-.554-.473l-1.528-.191a5.822,5.822,0,0,0-.681-.035,6.284,6.284,0,0,0-.821.048L22.71,21.7a.77.77,0,0,0-.6.486H21.2v.758h.853l.19,1.332a.951.951,0,0,0,.844.764l1.151.116a4.576,4.576,0,0,0,.58.011,4.975,4.975,0,0,0,.914-.088L26.142,25a1.1,1.1,0,0,0,.925-.7l.385-1.351a.616.616,0,0,1,1.137,0l.385,1.349a1.2,1.2,0,0,0,.927.789l.408.034a5.2,5.2,0,0,0,.915.052,4.079,4.079,0,0,0,.577-.047l1.152-.169c.412-.059.791-.259.843-.673l.191-1.335h.854Zm-7.751.265-.39,1.562a.932.932,0,0,1-.633.6l-.41.081a4.553,4.553,0,0,1-.837.069,3.905,3.905,0,0,1-.527-.032l-1.15-.163a.68.68,0,0,1-.523-.532l-.19-1.528a.4.4,0,0,1,.334-.436l1.151-.165a5.86,5.86,0,0,1,.768-.045,5.565,5.565,0,0,1,.633.032l1.528.192a.278.278,0,0,1,.248.361m6.331,1.589a.679.679,0,0,1-.521.532l-1.152.163a3.868,3.868,0,0,1-.524.032,4.608,4.608,0,0,1-.842-.069l-.408-.081a.937.937,0,0,1-.633-.6l-.39-1.562a.28.28,0,0,1,.247-.361l1.529-.192a5.61,5.61,0,0,1,.633-.032,5.847,5.847,0,0,1,.768.045l1.151.165a.4.4,0,0,1,.334.436Z" transform="translate(3.73 3.781)" fill="#0077ed"/>
    <path id="Tracciato_308" data-name="Tracciato 308" d="M33.552,17.073a6.492,6.492,0,0,1,.383,2.207v5.88c0,3.518-2.907,8.23-5.88,8.23s-5.88-4.712-5.88-8.23V19.28a6.512,6.512,0,0,1,.379-2.194,14.607,14.607,0,0,0-1.518,3.465c-.015-.046-.022-.087-.036-.132v4.74c0,4.146,3.322,9.406,7.056,9.406s7.056-5.26,7.056-9.406V20.424a15.629,15.629,0,0,0-1.559-3.351" transform="translate(3.694 3.004)" fill="#0077ed"/>
    <path id="Tracciato_309" data-name="Tracciato 309" d="M28.225,13.126c4.043,0,6.592,2.13,6.991,6.671-.4-1.169-1.246-2.472-1.595-2.472a3.13,3.13,0,0,0-1.533.562,7.253,7.253,0,0,1-7.733,0,3.133,3.133,0,0,0-1.53-.56c-.348,0-1.2,1.3-1.591,2.466.4-4.54,2.948-6.671,6.991-6.671m0-1.176c-4.826,0-7.754,2.888-8.162,7.743a14.1,14.1,0,0,0,1.217,6.132l1.068-5.653a6.622,6.622,0,0,1,.807-1.585,6.508,6.508,0,0,1,.621.325,8.417,8.417,0,0,0,8.894,0,6.085,6.085,0,0,1,.624-.327,6.681,6.681,0,0,1,.809,1.592l.995,5.835a16.659,16.659,0,0,0,1.29-6.316c-.152-4.708-3.336-7.743-8.162-7.743" transform="translate(3.525 2.102)" fill="#0077ed"/>
    <path id="Tracciato_310" data-name="Tracciato 310" d="M34.209,15.2A16.387,16.387,0,0,1,40.66,36.812l1.152.314A17.58,17.58,0,0,0,32.871,13.2a7.978,7.978,0,0,1,1.338,2" transform="translate(5.783 2.322)" fill="#0077ed"/>
    <path id="Tracciato_311" data-name="Tracciato 311" d="M14.947,36.813A16.385,16.385,0,0,1,21.4,15.2a8.009,8.009,0,0,1,1.338-2A17.577,17.577,0,0,0,13.8,37.128Z" transform="translate(2.111 2.322)" fill="#0077ed"/>
  </g>
</svg>
